<?xml version="1.0" encoding="UTF-8"?>
<svg version="1.1" xmlns="http://www.w3.org/2000/svg" width="58" height="65">
<path d="M0 0 C19.14 0 38.28 0 58 0 C58 21.45 58 42.9 58 65 C38.86 65 19.72 65 0 65 C0 43.55 0 22.1 0 0 Z " fill="#1B1B1E" transform="translate(0,0)"/>
<path d="M0 0 C5.77441941 3.27279797 8.66496548 8.26743097 11.5625 14.0625 C12.4335247 22.62342846 12.0178264 30.11479695 6.5625 37.0625 C-0.21842337 42.88150605 -6.14896937 44.5477238 -15.00390625 44.46875 C-21.23507066 43.73150188 -25.88815428 40.80025003 -30.12890625 36.24609375 C-35.19377339 29.56508667 -35.40893559 22.18893236 -34.4375 14.0625 C-31.82662025 7.14366867 -27.74484298 2.75170061 -21.4375 -0.9375 C-14.54372421 -3.23542526 -6.64571294 -2.9390615 0 0 Z " fill="#E0E0E0" transform="translate(40.4375,9.9375)"/>
<path d="M0 0 C0.66 0 1.32 0 2 0 C3.23184766 2.46369532 3.16732342 4.1894501 3.1875 6.9375 C3.20167969 7.81277344 3.21585938 8.68804687 3.23046875 9.58984375 C3 12 3 12 1 15 C-2.85119054 15.28527337 -6.30992118 15.18082522 -10 14 C-8.43988817 10.5222507 -6.36827674 7.72775973 -4 4.75 C-3.29875 3.85796875 -2.5975 2.9659375 -1.875 2.046875 C-1.25625 1.37140625 -0.6375 0.6959375 0 0 Z " fill="#252528" transform="translate(46,24)"/>
<path d="M0 0 C3.85119054 -0.28527337 7.30992118 -0.18082522 11 1 C9.42219077 4.71045247 7.09296752 7.29906384 4.375 10.25 C3.55773437 11.14203125 2.74046875 12.0340625 1.8984375 12.953125 C1.27195312 13.62859375 0.64546875 14.3040625 0 15 C-2.08133467 11.877998 -2.2737822 11.06733011 -2.25 7.5 C-2.25773438 6.33984375 -2.25773438 6.33984375 -2.265625 5.15625 C-2 3 -2 3 0 0 Z " fill="#232326" transform="translate(11,23)"/>
<path d="M0 0 C2.93280794 2.47902104 3.93871822 4.969262 5.1875 8.5625 C5.53167969 9.53316406 5.87585937 10.50382812 6.23046875 11.50390625 C7 14 7 14 7 16 C2.01756253 15.52548215 -1.1102747 14.16605547 -5 11 C-5.8515625 9.09765625 -5.8515625 9.09765625 -6 7 C-4.78515625 5.078125 -4.78515625 5.078125 -3.0625 3.25 C-2.49660156 2.63640625 -1.93070313 2.0228125 -1.34765625 1.390625 C-0.90292969 0.93171875 -0.45820313 0.4728125 0 0 Z " fill="#222225" transform="translate(19,34)"/>
<path d="M0 0 C2.27130656 0.30904171 4.54203305 0.62234907 6.8125 0.9375 C8.07707031 1.11152344 9.34164062 1.28554688 10.64453125 1.46484375 C14 2 14 2 17 3 C17 3.66 17 4.32 17 5 C12.76201664 8.45277325 8.50102837 10.58742287 3 11 C2.49384702 9.73160474 1.99530901 8.46016898 1.5 7.1875 C1.2215625 6.47980469 0.943125 5.77210937 0.65625 5.04296875 C0 3 0 3 0 0 Z " fill="#232326" transform="translate(27,40)"/>
<path d="M0 0 C4.36385313 0.65096152 7.46233405 1.24848204 11 4 C12.3125 6.6875 12.3125 6.6875 13 9 C11.02 11.31 9.04 13.62 7 16 C3.67695058 12.67695058 3.08762757 10.75346155 1.8125 6.3125 C1.46832031 5.13300781 1.12414063 3.95351562 0.76953125 2.73828125 C0.51558594 1.83464844 0.26164062 0.93101563 0 0 Z " fill="#1F1F22" transform="translate(32,12)"/>
<path d="M0 0 C3 6.625 3 6.625 3 10 C0.54006972 9.7186941 -1.91740248 9.42547269 -4.375 9.125 C-5.42300781 9.00705078 -5.42300781 9.00705078 -6.4921875 8.88671875 C-11.7734375 8.2265625 -11.7734375 8.2265625 -14 6 C-6.75 -0.14673913 -6.75 -0.14673913 0 0 Z " fill="#212124" transform="translate(28,12)"/>
<path d="M0 0 C3.375 0.25 3.375 0.25 7 1 C8.5 2.8125 8.5 2.8125 9 5 C8.62925373 8.05865675 7.76554463 9.35168306 6 12 C2.625 11.75 2.625 11.75 -1 11 C-2.5 9.1875 -2.5 9.1875 -3 7 C-2.62925373 3.94134325 -1.76554463 2.64831694 0 0 Z " fill="#202023" transform="translate(26,25)"/>
</svg>
